<mxfile host="app.diagrams.net" modified="2024-11-23T06:52:17.903Z" agent="Mozilla/5.0 (Windows NT 10.0; Win64; x64; rv:132.0) Gecko/20100101 Firefox/132.0" version="24.0.8" etag="QR8r1ZvtZ0pBkH6rc9u9" type="github">
  <diagram name="第 1 页" id="mVnWcw_fSnoYf0es6gfr">
    <mxGraphModel>
      <root>
        <mxCell id="0" />
        <mxCell id="1" parent="0" />
      </root>
    </mxGraphModel>
  </diagram>
</mxfile>
